ffmpeg version 6.1.1-3ubuntu5+esm2 Copyright (c) 2000-2023 the FFmpeg developers
  built with gcc 13 (Ubuntu 13.2.0-23ubuntu4)
  configuration: --prefix=/usr --extra-version=3ubuntu5+esm2 --toolchain=hardened --libdir=/usr/lib/x86_64-linux-gnu --incdir=/usr/include/x86_64-linux-gnu --arch=amd64 --enable-gpl --disable-stripping --disable-omx --enable-gnutls --enable-libaom --enable-libass --enable-libbs2b --enable-libcaca --enable-libcdio --enable-libcodec2 --enable-libdav1d --enable-libflite --enable-libfontconfig --enable-libfreetype --enable-libfribidi --enable-libglslang --enable-libgme --enable-libgsm --enable-libharfbuzz --enable-libmp3lame --enable-libmysofa --enable-libopenjpeg --enable-libopenmpt --enable-libopus --enable-librubberband --enable-libshine --enable-libsnappy --enable-libsoxr --enable-libspeex --enable-libtheora --enable-libtwolame --enable-libvidstab --enable-libvorbis --enable-libvpx --enable-libwebp --enable-libx265 --enable-libxml2 --enable-libxvid --enable-libzimg --enable-openal --enable-opencl --enable-opengl --disable-sndio --enable-libvpl --disable-libmfx --enable-libdc1394 --enable-libdrm --enable-libiec61883 --enable-chromaprint --enable-frei0r --enable-ladspa --enable-libbluray --enable-libjack --enable-libpulse --enable-librabbitmq --enable-librist --enable-libsrt --enable-libssh --enable-libsvtav1 --enable-libx264 --enable-libzmq --enable-libzvbi --enable-lv2 --enable-sdl2 --enable-libplacebo --enable-librav1e --enable-pocketsphinx --enable-librsvg --enable-libjxl --enable-shared
  libavutil      58. 29.100 / 58. 29.100
  libavcodec     60. 31.102 / 60. 31.102
  libavformat    60. 16.100 / 60. 16.100
  libavdevice    60.  3.100 / 60.  3.100
  libavfilter     9. 12.100 /  9. 12.100
  libswscale      7.  5.100 /  7.  5.100
  libswresample   4. 12.100 /  4. 12.100
  libpostproc    57.  3.100 / 57.  3.100
Input #0, mov,mp4,m4a,3gp,3g2,mj2, from '1080p.mp4':
  Metadata:
    major_brand     : isom
    minor_version   : 512
    compatible_brands: isomiso2avc1mp41
    encoder         : Lavf58.76.100
  Duration: 00:01:00.00, start: 0.000000, bitrate: 418 kb/s
  Stream #0:0[0x1](und): Video: h264 (High) (avc1 / 0x31637661), yuv420p(progressive), 1920x1080 [SAR 1:1 DAR 16:9], 77 kb/s, 25 fps, 25 tbr, 12800 tbn (default)
    Metadata:
      handler_name    : VideoHandler
      vendor_id       : [0][0][0][0]
  Stream #0:1[0x2](eng): Audio: aac (LC) (mp4a / 0x6134706D), 48000 Hz, stereo, fltp, 333 kb/s (default)
    Metadata:
      handler_name    : SoundHandler
      vendor_id       : [0][0][0][0]
Input #1, srt, from 'subs/sub.enu.srt':
  Duration: N/A, bitrate: N/A
  Stream #1:0: Subtitle: subrip
Input #2, srt, from 'subs/sub.tur.srt':
  Duration: N/A, bitrate: N/A
  Stream #2:0: Subtitle: subrip
Input #3, srt, from 'subs/sub.dan.srt':
  Duration: N/A, bitrate: N/A
  Stream #3:0: Subtitle: subrip
Input #4, srt, from 'subs/sub.tel.srt':
  Duration: N/A, bitrate: N/A
  Stream #4:0: Subtitle: subrip
Input #5, srt, from 'subs/sub.kor.srt':
  Duration: N/A, bitrate: N/A
  Stream #5:0: Subtitle: subrip
Input #6, srt, from 'subs/sub.spa.srt':
  Duration: N/A, bitrate: N/A
  Stream #6:0: Subtitle: subrip
[aac @ 0x5a8228d6e200] Estimating duration from bitrate, this may be inaccurate
Input #7, aac, from 'sounds/1-min-audio-fas.aac':
  Duration: 00:01:12.63, bitrate: 108 kb/s
  Stream #7:0: Audio: aac (LC), 48000 Hz, stereo, fltp, 108 kb/s
[aac @ 0x5a8228d60e80] Estimating duration from bitrate, this may be inaccurate
Input #8, aac, from 'sounds/1-min-audio-kor.aac':
  Duration: 00:01:12.63, bitrate: 108 kb/s
  Stream #8:0: Audio: aac (LC), 48000 Hz, stereo, fltp, 108 kb/s
[aac @ 0x5a8228e88d00] Estimating duration from bitrate, this may be inaccurate
Input #9, aac, from 'sounds/1-min-audio-jpn.aac':
  Duration: 00:01:09.79, bitrate: 112 kb/s
  Stream #9:0: Audio: aac (LC), 48000 Hz, stereo, fltp, 112 kb/s
[aac @ 0x5a8228d5d200] Estimating duration from bitrate, this may be inaccurate
Input #10, aac, from 'sounds/1-min-audio-pol.aac':
  Duration: 00:01:12.63, bitrate: 108 kb/s
  Stream #10:0: Audio: aac (LC), 48000 Hz, stereo, fltp, 108 kb/s
[aac @ 0x5a8228d98280] Estimating duration from bitrate, this may be inaccurate
Input #11, aac, from 'sounds/1-min-audio-nld.aac':
  Duration: 00:01:12.63, bitrate: 108 kb/s
  Stream #11:0: Audio: aac (LC), 48000 Hz, stereo, fltp, 108 kb/s
Output #0, matroska, to 'test_movie_lib/Companion (2025) {imdb-tt26584495}/Companion (2025) {imdb-tt26584495} {edition-Unrated Edition} [DVD-1080p][H264][AAC 3.0]-BINGBANG.mkv':
  Metadata:
    major_brand     : isom
    minor_version   : 512
    compatible_brands: isomiso2avc1mp41
    encoder         : Lavf60.16.100
  Stream #0:0(und): Video: h264 (High) (avc1 / 0x31637661), yuv420p(progressive), 1920x1080 [SAR 1:1 DAR 16:9], q=2-31, 77 kb/s, 25 fps, 25 tbr, 1k tbn (default)
    Metadata:
      handler_name    : VideoHandler
      vendor_id       : [0][0][0][0]
  Stream #0:1(eng): Audio: aac (LC) ([255][0][0][0] / 0x00FF), 48000 Hz, stereo, fltp, 333 kb/s (default)
    Metadata:
      handler_name    : SoundHandler
      vendor_id       : [0][0][0][0]
  Stream #0:2(eng): Subtitle: subrip (default)
    Metadata:
      handler_name    : English
  Stream #0:3(tur): Subtitle: subrip
    Metadata:
      handler_name    : tur
      title           : tur
  Stream #0:4(dan): Subtitle: subrip
    Metadata:
      handler_name    : dan
      title           : dan
  Stream #0:5(tel): Subtitle: subrip
    Metadata:
      handler_name    : tel
      title           : tel
  Stream #0:6(kor): Subtitle: subrip
    Metadata:
      handler_name    : kor
      title           : kor
  Stream #0:7(spa): Subtitle: subrip
    Metadata:
      handler_name    : spa
      title           : spa
  Stream #0:8(fas): Audio: aac (LC) ([255][0][0][0] / 0x00FF), 48000 Hz, stereo, fltp, 108 kb/s
    Metadata:
      handler_name    : fas
      title           : fas - AAC 3.0
  Stream #0:9(kor): Audio: aac (LC) ([255][0][0][0] / 0x00FF), 48000 Hz, stereo, fltp, 108 kb/s
    Metadata:
      handler_name    : kor
      title           : kor - AAC 3.0
  Stream #0:10(jpn): Audio: aac (LC) ([255][0][0][0] / 0x00FF), 48000 Hz, stereo, fltp, 112 kb/s
    Metadata:
      handler_name    : jpn
      title           : jpn - AAC 3.0
  Stream #0:11(pol): Audio: aac (LC) ([255][0][0][0] / 0x00FF), 48000 Hz, stereo, fltp, 108 kb/s
    Metadata:
      handler_name    : pol
      title           : pol - AAC 3.0
  Stream #0:12(nld): Audio: aac (LC) ([255][0][0][0] / 0x00FF), 48000 Hz, stereo, fltp, 108 kb/s
    Metadata:
      handler_name    : nld
      title           : nld - AAC 3.0
Stream mapping:
  Stream #0:0 -> #0:0 (copy)
  Stream #0:1 -> #0:1 (copy)
  Stream #1:0 -> #0:2 (copy)
  Stream #2:0 -> #0:3 (copy)
  Stream #3:0 -> #0:4 (copy)
  Stream #4:0 -> #0:5 (copy)
  Stream #5:0 -> #0:6 (copy)
  Stream #6:0 -> #0:7 (copy)
  Stream #7:0 -> #0:8 (copy)
  Stream #8:0 -> #0:9 (copy)
  Stream #9:0 -> #0:10 (copy)
  Stream #10:0 -> #0:11 (copy)
  Stream #11:0 -> #0:12 (copy)
Press [q] to stop, [?] for help
size=       0kB time=-00:00:00.08 bitrate=  -0.0kbits/s speed=N/A    [out#0/matroska @ 0x5a8228d5acc0] video:571kB audio:7246kB subtitle:2kB other streams:0kB global headers:0kB muxing overhead: 0.433246%
size=    7853kB time=00:01:00.01 bitrate=1072.0kbits/s speed= 354x    
